<svg xmlns="http://www.w3.org/2000/svg" xmlns:xlink="http://www.w3.org/1999/xlink" version="1.1" x="0px" y="0px" viewBox="0 0 24 30" enable-background="new 0 0 24 24" xml:space="preserve"><g><path d="M21.5,21c-0.062,0-0.123-0.012-0.181-0.034l-8.994-3.5c-0.257-0.1-0.385-0.39-0.285-0.647   c0.1-0.257,0.391-0.387,0.647-0.284l8.381,3.261L22.91,1.372L1.725,12.425l6.951,2.607c0.258,0.097,0.389,0.385,0.292,0.644   c-0.097,0.258-0.386,0.391-0.644,0.292l-8-3c-0.185-0.069-0.311-0.24-0.323-0.438c-0.012-0.196,0.093-0.382,0.268-0.474l23-12   c0.164-0.085,0.36-0.072,0.512,0.029c0.152,0.103,0.235,0.281,0.217,0.464l-2,20c-0.016,0.155-0.103,0.295-0.236,0.376   C21.682,20.976,21.591,21,21.5,21z"/></g><g><path d="M10,24.077c-0.015,0-0.03-0.001-0.045-0.002c-0.223-0.021-0.406-0.187-0.447-0.407l-1.5-8.077   c-0.03-0.161,0.021-0.328,0.138-0.444l15-15c0.182-0.181,0.472-0.197,0.67-0.033c0.199,0.163,0.242,0.45,0.099,0.664L12.953,17.23   l-2.486,6.524C10.393,23.95,10.206,24.077,10,24.077z M9.04,15.667l1.127,6.068l1.872-4.913c0.013-0.035,0.03-0.068,0.051-0.1   L20.288,4.42L9.04,15.667z"/></g><g><path d="M10,24.077c-0.133,0-0.266-0.053-0.364-0.157c-0.189-0.201-0.18-0.518,0.021-0.707l5.673-5.345   c0.201-0.189,0.518-0.18,0.707,0.021c0.189,0.201,0.18,0.518-0.021,0.707l-5.673,5.345C10.246,24.032,10.123,24.077,10,24.077z"/></g><text x="0" y="39" fill="#000000" font-size="5px" font-weight="bold" font-family="'Helvetica Neue', Helvetica, Arial-Unicode, Arial, Sans-serif">Created by icon 54</text><text x="0" y="44" fill="#000000" font-size="5px" font-weight="bold" font-family="'Helvetica Neue', Helvetica, Arial-Unicode, Arial, Sans-serif">from the Noun Project</text></svg>